<svg xmlns="http://www.w3.org/2000/svg" viewBox="0 0 1120 590" width="1120" height="590" role="img" aria-label="Audience &amp; email funnel" font-family="var(--font-sans)">
<circle cx="106" cy="227" r="4" fill="var(--color-line)" stroke="none" stroke-width="1.5" class="" /><circle cx="128" cy="227" r="4" fill="var(--color-line)" stroke="none" stroke-width="1.5" class="" /><circle cx="150" cy="227" r="4" fill="var(--color-line)" stroke="none" stroke-width="1.5" class="" /><circle cx="172" cy="227" r="4" fill="var(--color-line)" stroke="none" stroke-width="1.5" class="" /><circle cx="194" cy="227" r="4" fill="var(--color-line)" stroke="none" stroke-width="1.5" class="" /><circle cx="106" cy="249" r="4" fill="var(--color-line)" stroke="none" stroke-width="1.5" class="" /><circle cx="128" cy="249" r="4" fill="var(--color-accent)" stroke="none" stroke-width="1.5" class="" /><circle cx="150" cy="249" r="4" fill="var(--color-accent)" stroke="none" stroke-width="1.5" class="" /><circle cx="172" cy="249" r="4" fill="var(--color-accent)" stroke="none" stroke-width="1.5" class="" /><circle cx="194" cy="249" r="4" fill="var(--color-line)" stroke="none" stroke-width="1.5" class="" /><circle cx="106" cy="271" r="4" fill="var(--color-line)" stroke="none" stroke-width="1.5" class="" /><circle cx="128" cy="271" r="4" fill="var(--color-accent)" stroke="none" stroke-width="1.5" class="" /><circle cx="150" cy="271" r="4" fill="var(--color-accent)" stroke="none" stroke-width="1.5" class="" /><circle cx="172" cy="271" r="4" fill="var(--color-accent)" stroke="none" stroke-width="1.5" class="" /><circle cx="194" cy="271" r="4" fill="var(--color-line)" stroke="none" stroke-width="1.5" class="" /><circle cx="106" cy="293" r="4" fill="var(--color-line)" stroke="none" stroke-width="1.5" class="" /><circle cx="128" cy="293" r="4" fill="var(--color-accent)" stroke="none" stroke-width="1.5" class="" /><circle cx="150" cy="293" r="4" fill="var(--color-accent)" stroke="none" stroke-width="1.5" class="" /><circle cx="172" cy="293" r="4" fill="var(--color-accent)" stroke="none" stroke-width="1.5" class="" /><circle cx="194" cy="293" r="4" fill="var(--color-line)" stroke="none" stroke-width="1.5" class="" /><circle cx="106" cy="315" r="4" fill="var(--color-line)" stroke="none" stroke-width="1.5" class="" /><circle cx="128" cy="315" r="4" fill="var(--color-line)" stroke="none" stroke-width="1.5" class="" /><circle cx="150" cy="315" r="4" fill="var(--color-line)" stroke="none" stroke-width="1.5" class="" /><circle cx="172" cy="315" r="4" fill="var(--color-line)" stroke="none" stroke-width="1.5" class="" /><circle cx="194" cy="315" r="4" fill="var(--color-line)" stroke="none" stroke-width="1.5" class="" /><circle cx="150" cy="271" r="44" fill="none" stroke="var(--color-accent)" stroke-width="1.7" class="" /><rect x="358" y="221" width="110" height="145" rx="4" fill="var(--color-ground)" stroke="var(--color-line)" stroke-width="1.5" class="" /><rect x="372" y="207" width="110" height="145" rx="4" fill="color-mix(in srgb, var(--color-accent) 10%, var(--color-ground))" stroke="var(--color-accent)" stroke-width="1.5" class="" /><circle cx="388" cy="225" r="4" fill="var(--color-accent)" stroke="none" stroke-width="1.5" class="" /><path d="M402 225 H443" stroke="var(--color-accent)" stroke-width="1.5" fill="none" stroke-linecap="round" stroke-linejoin="round" class="" /><rect x="386" y="242" width="82" height="78" rx="2" fill="none" stroke="var(--color-line)" stroke-width="1.5" class="" /><path d="M420 267 L436 277 L420 287 Z" stroke="var(--color-accent)" stroke-width="1.5" fill="var(--color-accent)" stroke-linecap="round" stroke-linejoin="round" class="" /><path d="M388 337 H431" stroke="var(--color-accent)" stroke-width="1.5" fill="none" stroke-linecap="round" stroke-linejoin="round" class="" /><rect x="609" y="206" width="174" height="151" rx="4" fill="none" stroke="var(--color-accent)" stroke-width="1.5" class="" /><text x="625" y="296" fill="var(--color-accent)" font-size="78" font-weight="500" text-anchor="start">28</text><text x="628" y="335" fill="var(--color-ink-dim)" font-size="21" font-weight="400" text-anchor="start">questions</text><circle cx="744" cy="238" r="2" fill="var(--color-accent)" stroke="none" stroke-width="1.5" class="" /><circle cx="752" cy="238" r="2" fill="var(--color-accent)" stroke="none" stroke-width="1.5" class="" /><circle cx="760" cy="238" r="2" fill="var(--color-accent)" stroke="none" stroke-width="1.5" class="" /><circle cx="768" cy="238" r="2" fill="var(--color-accent)" stroke="none" stroke-width="1.5" class="" /><circle cx="744" cy="249" r="2" fill="var(--color-accent)" stroke="none" stroke-width="1.5" class="" /><circle cx="752" cy="249" r="2" fill="var(--color-accent)" stroke="none" stroke-width="1.5" class="" /><circle cx="760" cy="249" r="2" fill="var(--color-accent)" stroke="none" stroke-width="1.5" class="" /><circle cx="768" cy="249" r="2" fill="var(--color-accent)" stroke="none" stroke-width="1.5" class="" /><circle cx="744" cy="260" r="2" fill="var(--color-accent)" stroke="none" stroke-width="1.5" class="" /><circle cx="752" cy="260" r="2" fill="var(--color-accent)" stroke="none" stroke-width="1.5" class="" /><circle cx="760" cy="260" r="2" fill="var(--color-accent)" stroke="none" stroke-width="1.5" class="" /><circle cx="768" cy="260" r="2" fill="var(--color-accent)" stroke="none" stroke-width="1.5" class="" /><circle cx="744" cy="271" r="2" fill="var(--color-accent)" stroke="none" stroke-width="1.5" class="" /><circle cx="752" cy="271" r="2" fill="var(--color-accent)" stroke="none" stroke-width="1.5" class="" /><circle cx="760" cy="271" r="2" fill="var(--color-accent)" stroke="none" stroke-width="1.5" class="" /><circle cx="768" cy="271" r="2" fill="var(--color-accent)" stroke="none" stroke-width="1.5" class="" /><circle cx="744" cy="282" r="2" fill="var(--color-accent)" stroke="none" stroke-width="1.5" class="" /><circle cx="752" cy="282" r="2" fill="var(--color-accent)" stroke="none" stroke-width="1.5" class="" /><circle cx="760" cy="282" r="2" fill="var(--color-accent)" stroke="none" stroke-width="1.5" class="" /><circle cx="768" cy="282" r="2" fill="var(--color-accent)" stroke="none" stroke-width="1.5" class="" /><circle cx="744" cy="293" r="2" fill="var(--color-accent)" stroke="none" stroke-width="1.5" class="" /><circle cx="752" cy="293" r="2" fill="var(--color-accent)" stroke="none" stroke-width="1.5" class="" /><circle cx="760" cy="293" r="2" fill="var(--color-accent)" stroke="none" stroke-width="1.5" class="" /><circle cx="768" cy="293" r="2" fill="var(--color-accent)" stroke="none" stroke-width="1.5" class="" /><circle cx="744" cy="304" r="2" fill="var(--color-accent)" stroke="none" stroke-width="1.5" class="" /><circle cx="752" cy="304" r="2" fill="var(--color-accent)" stroke="none" stroke-width="1.5" class="" /><circle cx="760" cy="304" r="2" fill="var(--color-accent)" stroke="none" stroke-width="1.5" class="" /><circle cx="768" cy="304" r="2" fill="var(--color-accent)" stroke="none" stroke-width="1.5" class="" /><rect x="881" y="199" width="195" height="42" rx="3" fill="color-mix(in srgb, var(--color-accent) 10%, var(--color-ground))" stroke="none" stroke-width="1.5" class="" /><text x="895" y="227" fill="var(--color-accent)" font-size="23" font-weight="500" text-anchor="start">Email addresses</text><circle cx="897" cy="265" r="3" fill="var(--color-accent)" stroke="none" stroke-width="1.5" class="" /><text x="915" y="273" fill="var(--color-ink)" font-size="25" font-weight="400" text-anchor="start">Location</text><path d="M915 286 H1052" stroke="var(--color-line)" stroke-width="1" fill="none" stroke-linecap="round" stroke-linejoin="round" class="" /><circle cx="897" cy="304" r="3" fill="var(--color-accent)" stroke="none" stroke-width="1.5" class="" /><text x="915" y="312" fill="var(--color-ink)" font-size="25" font-weight="400" text-anchor="start">Needs</text><path d="M915 325 H1052" stroke="var(--color-line)" stroke-width="1" fill="none" stroke-linecap="round" stroke-linejoin="round" class="" /><circle cx="897" cy="343" r="3" fill="var(--color-accent)" stroke="none" stroke-width="1.5" class="" /><text x="915" y="351" fill="var(--color-ink)" font-size="25" font-weight="400" text-anchor="start">Gaps</text><path d="M915 364 H1052" stroke="var(--color-line)" stroke-width="1" fill="none" stroke-linecap="round" stroke-linejoin="round" class="" /><path d="M217 279 H339" stroke="var(--color-line)" stroke-width="1.5" fill="none" stroke-linecap="round" stroke-linejoin="round" class=" connector" /><path d="M217 279 H339" stroke="var(--color-accent)" stroke-width="2" fill="none" stroke-linecap="round" stroke-linejoin="round" class="trace trace-a connector" /><path d="M332 274 L339 279 L332 284" stroke="var(--color-accent)" stroke-width="1.7" fill="none" stroke-linecap="round" stroke-linejoin="round" class=" connector" /><path d="M499 279 H590" stroke="var(--color-line)" stroke-width="1.5" fill="none" stroke-linecap="round" stroke-linejoin="round" class=" connector" /><path d="M499 279 H590" stroke="var(--color-accent)" stroke-width="2" fill="none" stroke-linecap="round" stroke-linejoin="round" class="trace trace-b connector" /><path d="M583 274 L590 279 L583 284" stroke="var(--color-accent)" stroke-width="1.7" fill="none" stroke-linecap="round" stroke-linejoin="round" class=" connector" /><path d="M800 279 H878" stroke="var(--color-line)" stroke-width="1.5" fill="none" stroke-linecap="round" stroke-linejoin="round" class=" connector" /><path d="M800 279 H878" stroke="var(--color-accent)" stroke-width="2" fill="none" stroke-linecap="round" stroke-linejoin="round" class="trace trace-c connector" /><path d="M871 274 L878 279 L871 284" stroke="var(--color-accent)" stroke-width="1.7" fill="none" stroke-linecap="round" stroke-linejoin="round" class=" connector" /><text x="150" y="410" fill="var(--color-ink)" font-size="24" font-weight="500" text-anchor="middle">Define your</text><text x="150" y="441" fill="var(--color-ink)" font-size="24" font-weight="500" text-anchor="middle">ideal audience</text><text x="424" y="410" fill="var(--color-ink)" font-size="24" font-weight="500" text-anchor="middle">Create content</text><text x="424" y="441" fill="var(--color-ink)" font-size="24" font-weight="500" text-anchor="middle">to attract them</text><text x="696" y="410" fill="var(--color-ink)" font-size="24" font-weight="500" text-anchor="middle">Use a funnel to</text><text x="696" y="441" fill="var(--color-ink)" font-size="24" font-weight="500" text-anchor="middle">learn more about them</text><text x="970" y="410" fill="var(--color-ink)" font-size="24" font-weight="500" text-anchor="middle">Collect emails &amp;</text><text x="970" y="441" fill="var(--color-ink)" font-size="24" font-weight="500" text-anchor="middle">audience insights</text></svg>
